<mxfile host="app.diagrams.net" modified="2024-01-17T08:59:44.083Z" agent="Mozilla/5.0 (Windows NT 10.0; Win64; x64) AppleWebKit/537.36 (KHTML, like Gecko) Chrome/120.0.0.0 Safari/537.36 Edg/120.0.0.0" etag="dWbkQ23mOJCEeD2ag4FT" version="22.1.17" type="github" pages="3">
  <diagram name="第一层" id="C9TRYFHkkzXBIoLnPeZv">
    <mxGraphModel dx="1426" dy="751" grid="1" gridSize="10" guides="1" tooltips="1" connect="1" arrows="1" fold="1" page="1" pageScale="1" pageWidth="827" pageHeight="1169" math="0" shadow="0">
      <root>
        <mxCell id="0" />
        <mxCell id="1" parent="0" />
        <mxCell id="u85xnfE-iPrEO814gtg7-8" value="MPMS" style="rounded=0;whiteSpace=wrap;html=1;fillColor=#dae8fc;strokeColor=#6c8ebf;gradientColor=#7ea6e0;verticalAlign=bottom;align=right;" parent="1" vertex="1">
          <mxGeometry x="40" y="114" width="300" height="120" as="geometry" />
        </mxCell>
        <mxCell id="u85xnfE-iPrEO814gtg7-1" value="Core" style="rounded=0;whiteSpace=wrap;html=1;fillColor=#e1d5e7;strokeColor=#9673a6;" parent="1" vertex="1">
          <mxGeometry x="60" y="134" width="90" height="30" as="geometry" />
        </mxCell>
        <mxCell id="u85xnfE-iPrEO814gtg7-2" value="Scheduler" style="rounded=0;whiteSpace=wrap;html=1;fillColor=#e1d5e7;strokeColor=#9673a6;" parent="1" vertex="1">
          <mxGeometry x="60" y="184" width="90" height="30" as="geometry" />
        </mxCell>
        <mxCell id="u85xnfE-iPrEO814gtg7-3" value="MySQL" style="shape=cylinder3;whiteSpace=wrap;html=1;boundedLbl=1;backgroundOutline=1;size=15;fillColor=#647687;strokeColor=#314354;fontColor=#ffffff;" parent="1" vertex="1">
          <mxGeometry x="200" y="177" width="90" height="44" as="geometry" />
        </mxCell>
        <mxCell id="u85xnfE-iPrEO814gtg7-6" value="Master" style="rounded=0;whiteSpace=wrap;html=1;fillColor=#dae8fc;strokeColor=#6c8ebf;gradientColor=#7ea6e0;" parent="1" vertex="1">
          <mxGeometry x="290" y="274" width="50" height="170" as="geometry" />
        </mxCell>
        <mxCell id="u85xnfE-iPrEO814gtg7-13" value="" style="rounded=0;whiteSpace=wrap;html=1;fillColor=#dae8fc;strokeColor=#6c8ebf;gradientColor=#7ea6e0;" parent="1" vertex="1">
          <mxGeometry x="40" y="274" width="210" height="60" as="geometry" />
        </mxCell>
        <mxCell id="u85xnfE-iPrEO814gtg7-14" value="MPN" style="whiteSpace=wrap;html=1;aspect=fixed;fillColor=#1ba1e2;strokeColor=#006EAF;fontColor=#ffffff;" parent="1" vertex="1">
          <mxGeometry x="60" y="284" width="40" height="40" as="geometry" />
        </mxCell>
        <mxCell id="u85xnfE-iPrEO814gtg7-15" value="MPN" style="whiteSpace=wrap;html=1;aspect=fixed;fillColor=#1ba1e2;strokeColor=#006EAF;fontColor=#ffffff;" parent="1" vertex="1">
          <mxGeometry x="125" y="284" width="40" height="40" as="geometry" />
        </mxCell>
        <mxCell id="u85xnfE-iPrEO814gtg7-16" value="MPN" style="whiteSpace=wrap;html=1;aspect=fixed;fillColor=#1ba1e2;strokeColor=#006EAF;fontColor=#ffffff;" parent="1" vertex="1">
          <mxGeometry x="190" y="284" width="40" height="40" as="geometry" />
        </mxCell>
        <mxCell id="u85xnfE-iPrEO814gtg7-17" value="" style="shape=flexArrow;endArrow=block;startArrow=block;html=1;rounded=0;width=4;startSize=3.17;startWidth=8;endWidth=8;endSize=3.17;entryX=0.5;entryY=1;entryDx=0;entryDy=0;exitX=0.31;exitY=0;exitDx=0;exitDy=0;exitPerimeter=0;startFill=0;endFill=0;fillColor=#3333FF;" parent="1" source="u85xnfE-iPrEO814gtg7-13" target="u85xnfE-iPrEO814gtg7-2" edge="1">
          <mxGeometry width="100" height="100" relative="1" as="geometry">
            <mxPoint x="-330" y="424" as="sourcePoint" />
            <mxPoint x="-320" y="294" as="targetPoint" />
          </mxGeometry>
        </mxCell>
        <mxCell id="u85xnfE-iPrEO814gtg7-29" value="IF2" style="edgeLabel;html=1;align=center;verticalAlign=middle;resizable=0;points=[];fontStyle=1;fontSize=13;" parent="u85xnfE-iPrEO814gtg7-17" vertex="1" connectable="0">
          <mxGeometry x="0.0332" y="-3" relative="1" as="geometry">
            <mxPoint x="9" y="3" as="offset" />
          </mxGeometry>
        </mxCell>
        <mxCell id="u85xnfE-iPrEO814gtg7-18" value="" style="shape=flexArrow;endArrow=classic;startArrow=classic;html=1;rounded=0;endWidth=10;endSize=4.38;width=4;startWidth=10;startSize=4.38;exitX=0.5;exitY=1;exitDx=0;exitDy=0;fillColor=#3333FF;" parent="1" source="u85xnfE-iPrEO814gtg7-13" target="u85xnfE-iPrEO814gtg7-19" edge="1">
          <mxGeometry width="100" height="100" relative="1" as="geometry">
            <mxPoint x="-110" y="374" as="sourcePoint" />
            <mxPoint x="-190" y="474" as="targetPoint" />
          </mxGeometry>
        </mxCell>
        <mxCell id="u85xnfE-iPrEO814gtg7-19" value="" style="rounded=0;whiteSpace=wrap;html=1;fillColor=#dae8fc;strokeColor=#6c8ebf;gradientColor=#7ea6e0;" parent="1" vertex="1">
          <mxGeometry x="40" y="383" width="210" height="60" as="geometry" />
        </mxCell>
        <mxCell id="u85xnfE-iPrEO814gtg7-24" value="AntBoy" style="rounded=0;whiteSpace=wrap;html=1;fillColor=#d5e8d4;strokeColor=#82b366;" parent="1" vertex="1">
          <mxGeometry x="55" y="398" width="60" height="30" as="geometry" />
        </mxCell>
        <mxCell id="u85xnfE-iPrEO814gtg7-25" value="AntBoy" style="rounded=0;whiteSpace=wrap;html=1;fillColor=#d5e8d4;strokeColor=#82b366;" parent="1" vertex="1">
          <mxGeometry x="115" y="398" width="60" height="30" as="geometry" />
        </mxCell>
        <mxCell id="u85xnfE-iPrEO814gtg7-26" value="AntBoy" style="rounded=0;whiteSpace=wrap;html=1;fillColor=#d5e8d4;strokeColor=#82b366;" parent="1" vertex="1">
          <mxGeometry x="175" y="398" width="60" height="30" as="geometry" />
        </mxCell>
        <mxCell id="u85xnfE-iPrEO814gtg7-27" value="" style="shape=flexArrow;endArrow=block;startArrow=block;html=1;rounded=0;endWidth=10;endSize=4.38;width=4;startWidth=10;startSize=4.38;exitX=-0.04;exitY=0.176;exitDx=0;exitDy=0;exitPerimeter=0;entryX=1;entryY=0.5;entryDx=0;entryDy=0;startFill=0;endFill=0;fillColor=#3333FF;" parent="1" source="u85xnfE-iPrEO814gtg7-6" target="u85xnfE-iPrEO814gtg7-13" edge="1">
          <mxGeometry width="100" height="100" relative="1" as="geometry">
            <mxPoint x="-100" y="384" as="sourcePoint" />
            <mxPoint x="-180" y="484" as="targetPoint" />
          </mxGeometry>
        </mxCell>
        <mxCell id="u85xnfE-iPrEO814gtg7-28" value="" style="shape=flexArrow;endArrow=classic;startArrow=classic;html=1;rounded=0;endWidth=10;endSize=4.38;width=4;startWidth=10;startSize=4.38;exitX=-0.02;exitY=0.837;exitDx=0;exitDy=0;exitPerimeter=0;entryX=1;entryY=0.5;entryDx=0;entryDy=0;fillColor=#3333FF;" parent="1" target="u85xnfE-iPrEO814gtg7-19" edge="1">
          <mxGeometry width="100" height="100" relative="1" as="geometry">
            <mxPoint x="289" y="412.03" as="sourcePoint" />
            <mxPoint x="-180" y="463" as="targetPoint" />
          </mxGeometry>
        </mxCell>
        <mxCell id="u85xnfE-iPrEO814gtg7-30" value="" style="rounded=0;whiteSpace=wrap;html=1;fillColor=#dae8fc;strokeColor=#6c8ebf;gradientColor=#7ea6e0;" parent="1" vertex="1">
          <mxGeometry x="40" y="40" width="300" height="40" as="geometry" />
        </mxCell>
        <mxCell id="u85xnfE-iPrEO814gtg7-31" value="Web" style="ellipse;whiteSpace=wrap;html=1;fillColor=#b0e3e6;strokeColor=#0e8088;" parent="1" vertex="1">
          <mxGeometry x="100" y="45" width="70" height="30" as="geometry" />
        </mxCell>
        <mxCell id="u85xnfE-iPrEO814gtg7-32" value="SDK" style="ellipse;whiteSpace=wrap;html=1;fillColor=#f5f5f5;strokeColor=#666666;fontColor=#333333;" parent="1" vertex="1">
          <mxGeometry x="200" y="45" width="70" height="30" as="geometry" />
        </mxCell>
        <mxCell id="u85xnfE-iPrEO814gtg7-33" value="" style="shape=flexArrow;endArrow=classic;startArrow=classic;html=1;rounded=0;endWidth=10;endSize=4.38;width=4;startWidth=10;startSize=4.38;exitX=0.5;exitY=0;exitDx=0;exitDy=0;entryX=0.217;entryY=0.975;entryDx=0;entryDy=0;entryPerimeter=0;fontStyle=1;fillColor=#3333FF;fillStyle=auto;gradientColor=none;" parent="1" source="u85xnfE-iPrEO814gtg7-1" target="u85xnfE-iPrEO814gtg7-30" edge="1">
          <mxGeometry width="100" height="100" relative="1" as="geometry">
            <mxPoint x="-260" y="324" as="sourcePoint" />
            <mxPoint x="100" y="84" as="targetPoint" />
          </mxGeometry>
        </mxCell>
        <mxCell id="u85xnfE-iPrEO814gtg7-34" value="IF1" style="edgeLabel;html=1;align=center;verticalAlign=middle;resizable=0;points=[];fontStyle=1;fontSize=13;" parent="u85xnfE-iPrEO814gtg7-33" vertex="1" connectable="0">
          <mxGeometry x="0.0909" relative="1" as="geometry">
            <mxPoint x="12" as="offset" />
          </mxGeometry>
        </mxCell>
        <mxCell id="u85xnfE-iPrEO814gtg7-36" value="IF3" style="text;html=1;align=center;verticalAlign=middle;resizable=0;points=[];autosize=1;strokeColor=none;fillColor=none;fontStyle=1;fontSize=13;" parent="1" vertex="1">
          <mxGeometry x="248" y="308" width="40" height="30" as="geometry" />
        </mxCell>
        <mxCell id="u85xnfE-iPrEO814gtg7-37" value="IF4" style="text;html=1;align=center;verticalAlign=middle;resizable=0;points=[];autosize=1;strokeColor=none;fillColor=none;fontStyle=1;fontSize=13;" parent="1" vertex="1">
          <mxGeometry x="250" y="428" width="40" height="30" as="geometry" />
        </mxCell>
        <mxCell id="u85xnfE-iPrEO814gtg7-38" value="IF5" style="text;html=1;align=center;verticalAlign=middle;resizable=0;points=[];autosize=1;strokeColor=none;fillColor=none;fontStyle=1;fontSize=13;" parent="1" vertex="1">
          <mxGeometry x="140" y="344" width="40" height="30" as="geometry" />
        </mxCell>
        <mxCell id="Pq0h47JhKNnbnjFfkvQT-1" value="Monitor" style="rounded=0;whiteSpace=wrap;html=1;fillColor=#e1d5e7;strokeColor=#9673a6;" parent="1" vertex="1">
          <mxGeometry x="200" y="134" width="90" height="30" as="geometry" />
        </mxCell>
      </root>
    </mxGraphModel>
  </diagram>
  <diagram id="pSuu81LllHv4PN5bU0RK" name="第二层">
    <mxGraphModel dx="1426" dy="751" grid="0" gridSize="10" guides="1" tooltips="1" connect="1" arrows="1" fold="1" page="0" pageScale="1" pageWidth="827" pageHeight="1169" math="0" shadow="0">
      <root>
        <mxCell id="0" />
        <mxCell id="1" parent="0" />
        <mxCell id="xrKpV1nFxrNC7_VDxdPV-5" value="AntBoy" style="rounded=0;whiteSpace=wrap;html=1;verticalAlign=bottom;align=right;" parent="1" vertex="1">
          <mxGeometry x="430" y="280" width="340" height="170" as="geometry" />
        </mxCell>
        <mxCell id="LupQowgUyCEycN6CZihh-29" value="MPN" style="rounded=0;whiteSpace=wrap;html=1;align=center;verticalAlign=bottom;" parent="1" vertex="1">
          <mxGeometry x="40" y="220" width="340" height="190" as="geometry" />
        </mxCell>
        <mxCell id="LupQowgUyCEycN6CZihh-39" value="Workers" style="rounded=0;whiteSpace=wrap;html=1;horizontal=1;align=right;verticalAlign=top;" parent="1" vertex="1">
          <mxGeometry x="275" y="230" width="90" height="150" as="geometry" />
        </mxCell>
        <mxCell id="LupQowgUyCEycN6CZihh-1" value="Ant" style="rounded=0;whiteSpace=wrap;html=1;align=center;verticalAlign=bottom;" parent="1" vertex="1">
          <mxGeometry x="440" y="290" width="110" height="150" as="geometry" />
        </mxCell>
        <mxCell id="LupQowgUyCEycN6CZihh-2" value="MasRpcCli" style="rounded=0;whiteSpace=wrap;html=1;" parent="1" vertex="1">
          <mxGeometry x="452" y="300" width="90" height="30" as="geometry" />
        </mxCell>
        <mxCell id="LupQowgUyCEycN6CZihh-3" value="JobMgr" style="rounded=0;whiteSpace=wrap;html=1;horizontal=1;align=right;verticalAlign=top;" parent="1" vertex="1">
          <mxGeometry x="452" y="340" width="90" height="70" as="geometry" />
        </mxCell>
        <mxCell id="LupQowgUyCEycN6CZihh-4" value="Downloader" style="rounded=0;whiteSpace=wrap;html=1;" parent="1" vertex="1">
          <mxGeometry x="565" y="290" width="90" height="30" as="geometry" />
        </mxCell>
        <mxCell id="LupQowgUyCEycN6CZihh-5" value="Uploader" style="rounded=0;whiteSpace=wrap;html=1;" parent="1" vertex="1">
          <mxGeometry x="565" y="330" width="90" height="30" as="geometry" />
        </mxCell>
        <mxCell id="LupQowgUyCEycN6CZihh-6" value="AbilityTest" style="rounded=0;whiteSpace=wrap;html=1;" parent="1" vertex="1">
          <mxGeometry x="670" y="330" width="90" height="30" as="geometry" />
        </mxCell>
        <mxCell id="LupQowgUyCEycN6CZihh-7" value="Runner" style="rounded=0;whiteSpace=wrap;html=1;" parent="1" vertex="1">
          <mxGeometry x="565" y="370" width="90" height="30" as="geometry" />
        </mxCell>
        <mxCell id="LupQowgUyCEycN6CZihh-9" value="Jobs" style="rounded=0;whiteSpace=wrap;html=1;" parent="1" vertex="1">
          <mxGeometry x="452" y="390" width="70" height="20" as="geometry" />
        </mxCell>
        <mxCell id="LupQowgUyCEycN6CZihh-10" value="Confiig" style="rounded=0;whiteSpace=wrap;html=1;" parent="1" vertex="1">
          <mxGeometry x="670" y="290" width="90" height="30" as="geometry" />
        </mxCell>
        <mxCell id="LupQowgUyCEycN6CZihh-11" value="RsMonitor" style="rounded=0;whiteSpace=wrap;html=1;" parent="1" vertex="1">
          <mxGeometry x="670" y="370" width="90" height="30" as="geometry" />
        </mxCell>
        <mxCell id="LupQowgUyCEycN6CZihh-12" value="Master" style="rounded=0;whiteSpace=wrap;html=1;align=center;verticalAlign=bottom;" parent="1" vertex="1">
          <mxGeometry x="430" y="70" width="340" height="180" as="geometry" />
        </mxCell>
        <mxCell id="LupQowgUyCEycN6CZihh-20" value="Confiig" style="rounded=0;whiteSpace=wrap;html=1;" parent="1" vertex="1">
          <mxGeometry x="450" y="120" width="90" height="30" as="geometry" />
        </mxCell>
        <mxCell id="LupQowgUyCEycN6CZihh-23" value="NacosCli" style="rounded=0;whiteSpace=wrap;html=1;" parent="1" vertex="1">
          <mxGeometry x="450" y="80" width="90" height="30" as="geometry" />
        </mxCell>
        <mxCell id="LupQowgUyCEycN6CZihh-24" value="HttpSvr" style="rounded=0;whiteSpace=wrap;html=1;" parent="1" vertex="1">
          <mxGeometry x="450" y="160" width="90" height="30" as="geometry" />
        </mxCell>
        <mxCell id="LupQowgUyCEycN6CZihh-26" value="VmMgr" style="rounded=0;whiteSpace=wrap;html=1;horizontal=1;align=right;verticalAlign=top;" parent="1" vertex="1">
          <mxGeometry x="560" y="80" width="200" height="120" as="geometry" />
        </mxCell>
        <mxCell id="LupQowgUyCEycN6CZihh-30" value="Pipeline" style="rounded=0;whiteSpace=wrap;html=1;" parent="1" vertex="1">
          <mxGeometry x="60" y="310" width="90" height="30" as="geometry" />
        </mxCell>
        <mxCell id="LupQowgUyCEycN6CZihh-31" value="Confiig" style="rounded=0;whiteSpace=wrap;html=1;" parent="1" vertex="1">
          <mxGeometry x="60" y="270" width="90" height="30" as="geometry" />
        </mxCell>
        <mxCell id="LupQowgUyCEycN6CZihh-32" value="Downloader" style="rounded=0;whiteSpace=wrap;html=1;" parent="1" vertex="1">
          <mxGeometry x="275" y="260" width="80" height="20" as="geometry" />
        </mxCell>
        <mxCell id="LupQowgUyCEycN6CZihh-33" value="NacosCli" style="rounded=0;whiteSpace=wrap;html=1;" parent="1" vertex="1">
          <mxGeometry x="60" y="230" width="90" height="30" as="geometry" />
        </mxCell>
        <mxCell id="LupQowgUyCEycN6CZihh-36" value="TaskMgr" style="rounded=0;whiteSpace=wrap;html=1;horizontal=1;align=right;verticalAlign=top;" parent="1" vertex="1">
          <mxGeometry x="164" y="230" width="96" height="110" as="geometry" />
        </mxCell>
        <mxCell id="LupQowgUyCEycN6CZihh-35" value="TaskLife" style="rounded=0;whiteSpace=wrap;html=1;verticalAlign=top;align=right;" parent="1" vertex="1">
          <mxGeometry x="164" y="270" width="86" height="70" as="geometry" />
        </mxCell>
        <mxCell id="LupQowgUyCEycN6CZihh-37" value="MediaFiles" style="rounded=0;whiteSpace=wrap;html=1;" parent="1" vertex="1">
          <mxGeometry x="164" y="320" width="76" height="20" as="geometry" />
        </mxCell>
        <mxCell id="LupQowgUyCEycN6CZihh-40" value="PreFilter" style="rounded=0;whiteSpace=wrap;html=1;" parent="1" vertex="1">
          <mxGeometry x="275" y="280" width="80" height="20" as="geometry" />
        </mxCell>
        <mxCell id="LupQowgUyCEycN6CZihh-41" value="ArgsMaker" style="rounded=0;whiteSpace=wrap;html=1;" parent="1" vertex="1">
          <mxGeometry x="275" y="300" width="80" height="20" as="geometry" />
        </mxCell>
        <mxCell id="axiUucMd5kzOGv7fkxZv-2" value="Combiner" style="rounded=0;whiteSpace=wrap;html=1;" parent="1" vertex="1">
          <mxGeometry x="275" y="320" width="80" height="20" as="geometry" />
        </mxCell>
        <mxCell id="axiUucMd5kzOGv7fkxZv-4" value="Pipeline" style="rounded=0;whiteSpace=wrap;html=1;" parent="1" vertex="1">
          <mxGeometry x="452" y="370" width="70" height="20" as="geometry" />
        </mxCell>
        <mxCell id="axiUucMd5kzOGv7fkxZv-5" value="SubTaskLife" style="rounded=0;whiteSpace=wrap;html=1;" parent="1" vertex="1">
          <mxGeometry x="164" y="300" width="76" height="20" as="geometry" />
        </mxCell>
        <mxCell id="axiUucMd5kzOGv7fkxZv-6" value="BackFilter" style="rounded=0;whiteSpace=wrap;html=1;" parent="1" vertex="1">
          <mxGeometry x="275" y="340" width="80" height="20" as="geometry" />
        </mxCell>
        <mxCell id="axiUucMd5kzOGv7fkxZv-7" value="Uploader" style="rounded=0;whiteSpace=wrap;html=1;" parent="1" vertex="1">
          <mxGeometry x="275" y="360" width="80" height="20" as="geometry" />
        </mxCell>
        <mxCell id="axiUucMd5kzOGv7fkxZv-8" value="MpmsCli" style="rounded=0;whiteSpace=wrap;html=1;" parent="1" vertex="1">
          <mxGeometry x="60" y="350" width="90" height="30" as="geometry" />
        </mxCell>
        <mxCell id="axiUucMd5kzOGv7fkxZv-9" value="MasterCli" style="rounded=0;whiteSpace=wrap;html=1;" parent="1" vertex="1">
          <mxGeometry x="164" y="350" width="96" height="30" as="geometry" />
        </mxCell>
        <mxCell id="9AzblfXHv1Fqvd1GuY2d-1" value="MPMS" style="rounded=0;whiteSpace=wrap;html=1;align=center;verticalAlign=bottom;" parent="1" vertex="1">
          <mxGeometry x="40" y="70" width="340" height="110" as="geometry" />
        </mxCell>
        <mxCell id="9AzblfXHv1Fqvd1GuY2d-2" value="Confiig" style="rounded=0;whiteSpace=wrap;html=1;" parent="1" vertex="1">
          <mxGeometry x="60" y="120" width="90" height="30" as="geometry" />
        </mxCell>
        <mxCell id="9AzblfXHv1Fqvd1GuY2d-3" value="NacosCli" style="rounded=0;whiteSpace=wrap;html=1;" parent="1" vertex="1">
          <mxGeometry x="60" y="80" width="90" height="30" as="geometry" />
        </mxCell>
        <mxCell id="9AzblfXHv1Fqvd1GuY2d-4" value="Detective" style="rounded=0;whiteSpace=wrap;html=1;" parent="1" vertex="1">
          <mxGeometry x="167" y="120" width="90" height="30" as="geometry" />
        </mxCell>
        <mxCell id="9AzblfXHv1Fqvd1GuY2d-5" value="HttpSvr" style="rounded=0;whiteSpace=wrap;html=1;" parent="1" vertex="1">
          <mxGeometry x="167" y="80" width="90" height="30" as="geometry" />
        </mxCell>
        <mxCell id="9AzblfXHv1Fqvd1GuY2d-9" value="Scheduler" style="rounded=0;whiteSpace=wrap;html=1;verticalAlign=top;align=right;" parent="1" vertex="1">
          <mxGeometry x="270" y="80" width="90" height="70" as="geometry" />
        </mxCell>
        <mxCell id="9AzblfXHv1Fqvd1GuY2d-10" value="PriorityQue" style="rounded=0;whiteSpace=wrap;html=1;" parent="1" vertex="1">
          <mxGeometry x="270" y="130" width="80" height="20" as="geometry" />
        </mxCell>
        <mxCell id="xrKpV1nFxrNC7_VDxdPV-3" value="VMachine" style="rounded=0;whiteSpace=wrap;html=1;verticalAlign=top;align=right;" parent="1" vertex="1">
          <mxGeometry x="560" y="100" width="190" height="100" as="geometry" />
        </mxCell>
        <mxCell id="9AzblfXHv1Fqvd1GuY2d-11" value="TaskAnalysis" style="rounded=0;whiteSpace=wrap;html=1;" parent="1" vertex="1">
          <mxGeometry x="270" y="110" width="80" height="20" as="geometry" />
        </mxCell>
        <mxCell id="xrKpV1nFxrNC7_VDxdPV-1" value="MasRpcSvr" style="rounded=0;whiteSpace=wrap;html=1;" parent="1" vertex="1">
          <mxGeometry x="450" y="200" width="90" height="30" as="geometry" />
        </mxCell>
        <mxCell id="xrKpV1nFxrNC7_VDxdPV-7" value="DTaskMgr" style="rounded=0;whiteSpace=wrap;html=1;verticalAlign=top;align=right;" parent="1" vertex="1">
          <mxGeometry x="560" y="120" width="100" height="80" as="geometry" />
        </mxCell>
        <mxCell id="xrKpV1nFxrNC7_VDxdPV-6" value="MpnQueMgr" style="rounded=0;whiteSpace=wrap;html=1;verticalAlign=top;align=right;" parent="1" vertex="1">
          <mxGeometry x="560" y="140" width="90" height="60" as="geometry" />
        </mxCell>
        <mxCell id="axiUucMd5kzOGv7fkxZv-10" value="MpnQue" style="rounded=0;whiteSpace=wrap;html=1;verticalAlign=top;align=right;" parent="1" vertex="1">
          <mxGeometry x="560" y="160" width="80" height="40" as="geometry" />
        </mxCell>
        <mxCell id="LupQowgUyCEycN6CZihh-28" value="DTask" style="rounded=0;whiteSpace=wrap;html=1;" parent="1" vertex="1">
          <mxGeometry x="560" y="180" width="70" height="20" as="geometry" />
        </mxCell>
        <mxCell id="xrKpV1nFxrNC7_VDxdPV-10" value="AntMgr" style="rounded=0;whiteSpace=wrap;html=1;verticalAlign=top;align=right;" parent="1" vertex="1">
          <mxGeometry x="670" y="160" width="60" height="40" as="geometry" />
        </mxCell>
        <mxCell id="xrKpV1nFxrNC7_VDxdPV-9" value="AntBoy" style="rounded=0;whiteSpace=wrap;html=1;" parent="1" vertex="1">
          <mxGeometry x="670" y="180" width="50" height="20" as="geometry" />
        </mxCell>
      </root>
    </mxGraphModel>
  </diagram>
  <diagram id="fhXMIbYGh4Jm7d5pEKw7" name="顺序图">
    <mxGraphModel dx="1826" dy="751" grid="0" gridSize="10" guides="1" tooltips="1" connect="1" arrows="1" fold="1" page="0" pageScale="1" pageWidth="827" pageHeight="1169" math="0" shadow="0">
      <root>
        <mxCell id="0" />
        <mxCell id="1" parent="0" />
        <mxCell id="jRH0VeDZNtskZWW1Puf4-5" value="MPMS&amp;nbsp;Core" style="shape=umlLifeline;perimeter=lifelinePerimeter;whiteSpace=wrap;html=1;container=1;dropTarget=0;collapsible=0;recursiveResize=0;outlineConnect=0;portConstraint=eastwest;newEdgeStyle={&quot;curved&quot;:0,&quot;rounded&quot;:0};" vertex="1" parent="1">
          <mxGeometry x="140" y="210" width="80" height="390" as="geometry" />
        </mxCell>
        <mxCell id="jRH0VeDZNtskZWW1Puf4-6" value="" style="shape=umlLifeline;perimeter=lifelinePerimeter;whiteSpace=wrap;html=1;container=1;dropTarget=0;collapsible=0;recursiveResize=0;outlineConnect=0;portConstraint=eastwest;newEdgeStyle={&quot;curved&quot;:0,&quot;rounded&quot;:0};participant=umlActor;" vertex="1" parent="1">
          <mxGeometry x="30" y="210" width="20" height="390" as="geometry" />
        </mxCell>
        <mxCell id="jRH0VeDZNtskZWW1Puf4-7" value="MPMS&amp;nbsp;MQ" style="shape=umlLifeline;perimeter=lifelinePerimeter;whiteSpace=wrap;html=1;container=1;dropTarget=0;collapsible=0;recursiveResize=0;outlineConnect=0;portConstraint=eastwest;newEdgeStyle={&quot;curved&quot;:0,&quot;rounded&quot;:0};" vertex="1" parent="1">
          <mxGeometry x="323.5" y="210" width="76.5" height="390" as="geometry" />
        </mxCell>
        <mxCell id="jRH0VeDZNtskZWW1Puf4-8" value="Detective" style="shape=umlLifeline;perimeter=lifelinePerimeter;whiteSpace=wrap;html=1;container=1;dropTarget=0;collapsible=0;recursiveResize=0;outlineConnect=0;portConstraint=eastwest;newEdgeStyle={&quot;curved&quot;:0,&quot;rounded&quot;:0};" vertex="1" parent="1">
          <mxGeometry x="500" y="210" width="76.5" height="390" as="geometry" />
        </mxCell>
        <mxCell id="jRH0VeDZNtskZWW1Puf4-9" value="TaskAnalysis" style="shape=umlLifeline;perimeter=lifelinePerimeter;whiteSpace=wrap;html=1;container=1;dropTarget=0;collapsible=0;recursiveResize=0;outlineConnect=0;portConstraint=eastwest;newEdgeStyle={&quot;curved&quot;:0,&quot;rounded&quot;:0};" vertex="1" parent="1">
          <mxGeometry x="680" y="210" width="76.5" height="390" as="geometry" />
        </mxCell>
        <mxCell id="iAkf0LrHtNglAnZE1eCJ-5" value="" style="html=1;points=[[0,0,0,0,5],[0,1,0,0,-5],[1,0,0,0,5],[1,1,0,0,-5]];perimeter=orthogonalPerimeter;outlineConnect=0;targetShapes=umlLifeline;portConstraint=eastwest;newEdgeStyle={&quot;curved&quot;:0,&quot;rounded&quot;:0};" vertex="1" parent="jRH0VeDZNtskZWW1Puf4-9">
          <mxGeometry x="35" y="250" width="10" height="40" as="geometry" />
        </mxCell>
        <mxCell id="iAkf0LrHtNglAnZE1eCJ-6" value="8：生成子任务" style="html=1;align=left;spacingLeft=2;endArrow=block;rounded=0;edgeStyle=orthogonalEdgeStyle;curved=0;rounded=0;" edge="1" target="iAkf0LrHtNglAnZE1eCJ-5" parent="jRH0VeDZNtskZWW1Puf4-9">
          <mxGeometry relative="1" as="geometry">
            <mxPoint x="40" y="230" as="sourcePoint" />
            <Array as="points">
              <mxPoint x="70" y="260" />
            </Array>
          </mxGeometry>
        </mxCell>
        <mxCell id="4DkyPEXsEH176Svy6npW-1" value="PriorityQue" style="shape=umlLifeline;perimeter=lifelinePerimeter;whiteSpace=wrap;html=1;container=1;dropTarget=0;collapsible=0;recursiveResize=0;outlineConnect=0;portConstraint=eastwest;newEdgeStyle={&quot;curved&quot;:0,&quot;rounded&quot;:0};" vertex="1" parent="1">
          <mxGeometry x="860" y="210" width="76.5" height="390" as="geometry" />
        </mxCell>
        <mxCell id="4DkyPEXsEH176Svy6npW-2" value="1:转码任务" style="html=1;verticalAlign=bottom;endArrow=block;curved=0;rounded=0;" edge="1" parent="1" target="jRH0VeDZNtskZWW1Puf4-5">
          <mxGeometry width="80" relative="1" as="geometry">
            <mxPoint x="39.5" y="290" as="sourcePoint" />
            <mxPoint x="160" y="290" as="targetPoint" />
          </mxGeometry>
        </mxCell>
        <mxCell id="4DkyPEXsEH176Svy6npW-3" value="2：通知探测" style="html=1;verticalAlign=bottom;endArrow=block;curved=0;rounded=0;" edge="1" parent="1" target="jRH0VeDZNtskZWW1Puf4-7">
          <mxGeometry width="80" relative="1" as="geometry">
            <mxPoint x="180" y="310" as="sourcePoint" />
            <mxPoint x="260" y="310" as="targetPoint" />
          </mxGeometry>
        </mxCell>
        <mxCell id="4DkyPEXsEH176Svy6npW-4" value="3：返回成功" style="html=1;verticalAlign=bottom;endArrow=open;dashed=1;endSize=8;curved=0;rounded=0;" edge="1" parent="1" target="jRH0VeDZNtskZWW1Puf4-6">
          <mxGeometry relative="1" as="geometry">
            <mxPoint x="180" y="340" as="sourcePoint" />
            <mxPoint x="100" y="340" as="targetPoint" />
          </mxGeometry>
        </mxCell>
        <mxCell id="4DkyPEXsEH176Svy6npW-5" value="4：读取探测通知" style="html=1;verticalAlign=bottom;endArrow=block;curved=0;rounded=0;" edge="1" parent="1" target="jRH0VeDZNtskZWW1Puf4-8">
          <mxGeometry width="80" relative="1" as="geometry">
            <mxPoint x="360" y="340" as="sourcePoint" />
            <mxPoint x="440" y="340" as="targetPoint" />
          </mxGeometry>
        </mxCell>
        <mxCell id="iAkf0LrHtNglAnZE1eCJ-1" value="6：通知调度" style="html=1;verticalAlign=bottom;endArrow=block;curved=0;rounded=0;" edge="1" parent="1" source="jRH0VeDZNtskZWW1Puf4-8" target="jRH0VeDZNtskZWW1Puf4-7">
          <mxGeometry width="80" relative="1" as="geometry">
            <mxPoint x="540" y="371" as="sourcePoint" />
            <mxPoint x="361.25" y="371" as="targetPoint" />
            <Array as="points">
              <mxPoint x="450" y="390" />
            </Array>
          </mxGeometry>
        </mxCell>
        <mxCell id="iAkf0LrHtNglAnZE1eCJ-2" value="" style="html=1;points=[[0,0,0,0,5],[0,1,0,0,-5],[1,0,0,0,5],[1,1,0,0,-5]];perimeter=orthogonalPerimeter;outlineConnect=0;targetShapes=umlLifeline;portConstraint=eastwest;newEdgeStyle={&quot;curved&quot;:0,&quot;rounded&quot;:0};" vertex="1" parent="1">
          <mxGeometry x="535" y="360" width="10" height="40" as="geometry" />
        </mxCell>
        <mxCell id="iAkf0LrHtNglAnZE1eCJ-3" value="5：探测源信息" style="html=1;align=left;spacingLeft=2;endArrow=block;rounded=0;edgeStyle=orthogonalEdgeStyle;curved=0;rounded=0;" edge="1" target="iAkf0LrHtNglAnZE1eCJ-2" parent="1">
          <mxGeometry relative="1" as="geometry">
            <mxPoint x="540" y="340" as="sourcePoint" />
            <Array as="points">
              <mxPoint x="570" y="370" />
            </Array>
          </mxGeometry>
        </mxCell>
        <mxCell id="iAkf0LrHtNglAnZE1eCJ-4" value="7：读取调度通知" style="html=1;verticalAlign=bottom;endArrow=block;curved=0;rounded=0;" edge="1" parent="1" target="jRH0VeDZNtskZWW1Puf4-9">
          <mxGeometry width="80" relative="1" as="geometry">
            <mxPoint x="360" y="440" as="sourcePoint" />
            <mxPoint x="440" y="440" as="targetPoint" />
          </mxGeometry>
        </mxCell>
        <mxCell id="iAkf0LrHtNglAnZE1eCJ-7" value="9：发布子任务到队列" style="html=1;verticalAlign=bottom;endArrow=block;curved=0;rounded=0;" edge="1" parent="1" target="4DkyPEXsEH176Svy6npW-1">
          <mxGeometry width="80" relative="1" as="geometry">
            <mxPoint x="720" y="520" as="sourcePoint" />
            <mxPoint x="800" y="520" as="targetPoint" />
          </mxGeometry>
        </mxCell>
        <mxCell id="iAkf0LrHtNglAnZE1eCJ-8" value="TaskStatus:未初始化" style="text;html=1;strokeColor=none;fillColor=none;align=center;verticalAlign=middle;whiteSpace=wrap;rounded=0;" vertex="1" parent="1">
          <mxGeometry x="140" y="140" width="80" height="30" as="geometry" />
        </mxCell>
        <mxCell id="iAkf0LrHtNglAnZE1eCJ-9" value="TaskStatus:已探测" style="text;html=1;strokeColor=none;fillColor=none;align=center;verticalAlign=middle;whiteSpace=wrap;rounded=0;" vertex="1" parent="1">
          <mxGeometry x="496.5" y="140" width="80" height="30" as="geometry" />
        </mxCell>
        <mxCell id="iAkf0LrHtNglAnZE1eCJ-10" value="TaskStatus:已初始化" style="text;html=1;strokeColor=none;fillColor=none;align=center;verticalAlign=middle;whiteSpace=wrap;rounded=0;" vertex="1" parent="1">
          <mxGeometry x="680" y="140" width="80" height="30" as="geometry" />
        </mxCell>
        <mxCell id="iAkf0LrHtNglAnZE1eCJ-11" value="TaskStatus:就绪" style="text;html=1;strokeColor=none;fillColor=none;align=center;verticalAlign=middle;whiteSpace=wrap;rounded=0;" vertex="1" parent="1">
          <mxGeometry x="858.25" y="140" width="80" height="30" as="geometry" />
        </mxCell>
        <mxCell id="bEK7GYJIvS46G0QIL3K2-7" value="" style="edgeStyle=orthogonalEdgeStyle;rounded=0;orthogonalLoop=1;jettySize=auto;html=1;" edge="1" parent="1" source="bEK7GYJIvS46G0QIL3K2-1" target="bEK7GYJIvS46G0QIL3K2-6">
          <mxGeometry relative="1" as="geometry" />
        </mxCell>
        <mxCell id="bEK7GYJIvS46G0QIL3K2-1" value="开始" style="strokeWidth=2;html=1;shape=mxgraph.flowchart.start_1;whiteSpace=wrap;" vertex="1" parent="1">
          <mxGeometry x="-64" y="719" width="71" height="44" as="geometry" />
        </mxCell>
        <mxCell id="bEK7GYJIvS46G0QIL3K2-5" value="" style="edgeStyle=orthogonalEdgeStyle;rounded=0;orthogonalLoop=1;jettySize=auto;html=1;" edge="1" parent="1" source="bEK7GYJIvS46G0QIL3K2-2" target="bEK7GYJIvS46G0QIL3K2-4">
          <mxGeometry relative="1" as="geometry" />
        </mxCell>
        <mxCell id="bEK7GYJIvS46G0QIL3K2-2" value="从Master获取VMs信息" style="whiteSpace=wrap;html=1;strokeWidth=2;" vertex="1" parent="1">
          <mxGeometry x="-86.75" y="915" width="120" height="39.5" as="geometry" />
        </mxCell>
        <mxCell id="bEK7GYJIvS46G0QIL3K2-11" value="" style="edgeStyle=orthogonalEdgeStyle;rounded=0;orthogonalLoop=1;jettySize=auto;html=1;" edge="1" parent="1" source="bEK7GYJIvS46G0QIL3K2-4" target="bEK7GYJIvS46G0QIL3K2-10">
          <mxGeometry relative="1" as="geometry" />
        </mxCell>
        <mxCell id="bEK7GYJIvS46G0QIL3K2-4" value="选取负载最低的VM" style="whiteSpace=wrap;html=1;strokeWidth=2;" vertex="1" parent="1">
          <mxGeometry x="-86.75" y="1005" width="120" height="36.5" as="geometry" />
        </mxCell>
        <mxCell id="bEK7GYJIvS46G0QIL3K2-6" value="判断流水线是否满载" style="rhombus;whiteSpace=wrap;html=1;strokeWidth=2;" vertex="1" parent="1">
          <mxGeometry x="-90.25" y="792" width="123.5" height="69" as="geometry" />
        </mxCell>
        <mxCell id="bEK7GYJIvS46G0QIL3K2-8" value="" style="endArrow=classic;html=1;rounded=0;exitX=0.5;exitY=1;exitDx=0;exitDy=0;entryX=0.5;entryY=0;entryDx=0;entryDy=0;" edge="1" parent="1" source="bEK7GYJIvS46G0QIL3K2-6" target="bEK7GYJIvS46G0QIL3K2-2">
          <mxGeometry width="50" height="50" relative="1" as="geometry">
            <mxPoint x="73" y="912" as="sourcePoint" />
            <mxPoint x="123" y="862" as="targetPoint" />
          </mxGeometry>
        </mxCell>
        <mxCell id="bEK7GYJIvS46G0QIL3K2-9" value="否" style="edgeLabel;html=1;align=center;verticalAlign=middle;resizable=0;points=[];" vertex="1" connectable="0" parent="bEK7GYJIvS46G0QIL3K2-8">
          <mxGeometry x="-0.3322" y="1" relative="1" as="geometry">
            <mxPoint as="offset" />
          </mxGeometry>
        </mxCell>
        <mxCell id="bEK7GYJIvS46G0QIL3K2-12" style="edgeStyle=orthogonalEdgeStyle;rounded=0;orthogonalLoop=1;jettySize=auto;html=1;exitX=0;exitY=0.5;exitDx=0;exitDy=0;entryX=0;entryY=0.5;entryDx=0;entryDy=0;" edge="1" parent="1" source="bEK7GYJIvS46G0QIL3K2-10" target="bEK7GYJIvS46G0QIL3K2-6">
          <mxGeometry relative="1" as="geometry">
            <Array as="points">
              <mxPoint x="-146" y="1111" />
              <mxPoint x="-146" y="827" />
            </Array>
          </mxGeometry>
        </mxCell>
        <mxCell id="bEK7GYJIvS46G0QIL3K2-10" value="从MPMS拉取适合VM的任务" style="whiteSpace=wrap;html=1;strokeWidth=2;" vertex="1" parent="1">
          <mxGeometry x="-86.75" y="1093" width="120" height="36.5" as="geometry" />
        </mxCell>
        <mxCell id="bEK7GYJIvS46G0QIL3K2-13" value="结束" style="strokeWidth=2;html=1;shape=mxgraph.flowchart.start_1;whiteSpace=wrap;" vertex="1" parent="1">
          <mxGeometry x="-60" y="1174" width="71" height="44" as="geometry" />
        </mxCell>
        <mxCell id="bEK7GYJIvS46G0QIL3K2-14" style="edgeStyle=orthogonalEdgeStyle;rounded=0;orthogonalLoop=1;jettySize=auto;html=1;exitX=1;exitY=0.5;exitDx=0;exitDy=0;entryX=0.5;entryY=0;entryDx=0;entryDy=0;entryPerimeter=0;" edge="1" parent="1" source="bEK7GYJIvS46G0QIL3K2-6" target="bEK7GYJIvS46G0QIL3K2-13">
          <mxGeometry relative="1" as="geometry">
            <Array as="points">
              <mxPoint x="88" y="827" />
              <mxPoint x="88" y="1152" />
              <mxPoint x="-24" y="1152" />
            </Array>
          </mxGeometry>
        </mxCell>
        <mxCell id="leHQj-s0RM5eeMcG2EE1-1" value="是" style="edgeLabel;html=1;align=center;verticalAlign=middle;resizable=0;points=[];" vertex="1" connectable="0" parent="bEK7GYJIvS46G0QIL3K2-14">
          <mxGeometry x="-0.2025" y="2" relative="1" as="geometry">
            <mxPoint as="offset" />
          </mxGeometry>
        </mxCell>
        <mxCell id="5qRGd8RVITDUqSsmBU_A-12" style="edgeStyle=orthogonalEdgeStyle;rounded=0;orthogonalLoop=1;jettySize=auto;html=1;exitX=0.5;exitY=1;exitDx=0;exitDy=0;exitPerimeter=0;entryX=0.5;entryY=0;entryDx=0;entryDy=0;" edge="1" parent="1" source="5qRGd8RVITDUqSsmBU_A-1" target="5qRGd8RVITDUqSsmBU_A-4">
          <mxGeometry relative="1" as="geometry" />
        </mxCell>
        <mxCell id="5qRGd8RVITDUqSsmBU_A-1" value="开始" style="strokeWidth=2;html=1;shape=mxgraph.flowchart.start_1;whiteSpace=wrap;" vertex="1" parent="1">
          <mxGeometry x="389.5" y="725" width="71" height="44" as="geometry" />
        </mxCell>
        <mxCell id="5qRGd8RVITDUqSsmBU_A-7" value="" style="edgeStyle=orthogonalEdgeStyle;rounded=0;orthogonalLoop=1;jettySize=auto;html=1;" edge="1" parent="1" source="5qRGd8RVITDUqSsmBU_A-4" target="5qRGd8RVITDUqSsmBU_A-6">
          <mxGeometry relative="1" as="geometry" />
        </mxCell>
        <mxCell id="5qRGd8RVITDUqSsmBU_A-4" value="读取AbilityTest生成的配置" style="whiteSpace=wrap;html=1;strokeWidth=2;" vertex="1" parent="1">
          <mxGeometry x="365" y="806.75" width="120" height="39.5" as="geometry" />
        </mxCell>
        <mxCell id="5qRGd8RVITDUqSsmBU_A-11" style="edgeStyle=orthogonalEdgeStyle;rounded=0;orthogonalLoop=1;jettySize=auto;html=1;exitX=0.5;exitY=1;exitDx=0;exitDy=0;entryX=0.5;entryY=0;entryDx=0;entryDy=0;" edge="1" parent="1" source="5qRGd8RVITDUqSsmBU_A-6" target="5qRGd8RVITDUqSsmBU_A-8">
          <mxGeometry relative="1" as="geometry" />
        </mxCell>
        <mxCell id="5qRGd8RVITDUqSsmBU_A-6" value="启动GPU实例，启动CPU实例" style="whiteSpace=wrap;html=1;strokeWidth=2;" vertex="1" parent="1">
          <mxGeometry x="365" y="902" width="120" height="39.5" as="geometry" />
        </mxCell>
        <mxCell id="5qRGd8RVITDUqSsmBU_A-10" value="" style="edgeStyle=orthogonalEdgeStyle;rounded=0;orthogonalLoop=1;jettySize=auto;html=1;" edge="1" parent="1" source="5qRGd8RVITDUqSsmBU_A-8" target="5qRGd8RVITDUqSsmBU_A-9">
          <mxGeometry relative="1" as="geometry" />
        </mxCell>
        <mxCell id="5qRGd8RVITDUqSsmBU_A-8" value="连接Master并注册" style="whiteSpace=wrap;html=1;strokeWidth=2;" vertex="1" parent="1">
          <mxGeometry x="365" y="986" width="120" height="39.5" as="geometry" />
        </mxCell>
        <mxCell id="5qRGd8RVITDUqSsmBU_A-9" value="等待Master推送任务" style="whiteSpace=wrap;html=1;strokeWidth=2;" vertex="1" parent="1">
          <mxGeometry x="365" y="1065" width="120" height="39.5" as="geometry" />
        </mxCell>
        <mxCell id="5qRGd8RVITDUqSsmBU_A-13" value="结束" style="strokeWidth=2;html=1;shape=mxgraph.flowchart.start_1;whiteSpace=wrap;" vertex="1" parent="1">
          <mxGeometry x="389.5" y="1140" width="71" height="44" as="geometry" />
        </mxCell>
        <mxCell id="5qRGd8RVITDUqSsmBU_A-14" style="edgeStyle=orthogonalEdgeStyle;rounded=0;orthogonalLoop=1;jettySize=auto;html=1;exitX=0.5;exitY=1;exitDx=0;exitDy=0;entryX=0.5;entryY=0;entryDx=0;entryDy=0;entryPerimeter=0;" edge="1" parent="1" source="5qRGd8RVITDUqSsmBU_A-9" target="5qRGd8RVITDUqSsmBU_A-13">
          <mxGeometry relative="1" as="geometry" />
        </mxCell>
      </root>
    </mxGraphModel>
  </diagram>
</mxfile>
